<svg width="563" height="575" xmlns="http://www.w3.org/2000/svg">
 <defs>
  <linearGradient gradientTransform="matrix(0,-1,1,0,4642.5830078125,182.01010131835938)" y2="-4336.9873" x2="-108.6774" y1="-4160.4458" x1="-27.813" gradientUnits="userSpaceOnUse" id="svg_5">
   <stop stop-color="#000000" offset="0"/>
   <stop stop-color="#0CBFAE" offset="1"/>
  </linearGradient>
  <linearGradient gradientTransform="matrix(-1,0,0,-1,4169.90478515625,-3940.294677734375)" y2="-4111.833" x2="3826.5649" y1="-3935.291" x1="3907.4294" gradientUnits="userSpaceOnUse" id="svg_4">
   <stop stop-color="#000000" offset="0"/>
   <stop stop-color="#0CBFAE" offset="1"/>
  </linearGradient>
  <linearGradient gradientTransform="matrix(0,1,-1,0,219.53268432617188,-3786.21875)" y2="-4.6577" x2="3920.0132" y1="171.8842" x1="4000.8777" gradientUnits="userSpaceOnUse" id="svg_3">
   <stop stop-color="#000000" offset="0"/>
   <stop stop-color="#0CBFAE" offset="1"/>
  </linearGradient>
  <linearGradient gradientTransform="matrix(1,0,0,1,-0.649993896484375,23.100006103515625)" y2="229.8436" x2="187.0964" y1="406.3854" x1="267.9608" gradientUnits="userSpaceOnUse" id="svg_2">
   <stop stop-color="#000000" offset="0"/>
   <stop stop-color="#0CBFAE" offset="1"/>
  </linearGradient>
 </defs>
 <g>
  <title>Layer 1</title>
  <g>
   <circle fill="#FFFFFF" r="205.89999" cy="212.20001" cx="264.85001" class="st1"/>
   <rect fill="#0CBFAE" height="105.3" width="183.7" class="st0" y="422.10001" x="7.35001"/>
   <g>
    <path d="m35.35001,433.50001c6,0 11.1,2.1 15.4,6.4c4.2,4.2 6.4,9.4 6.4,15.4l0,43.9c0,6 -2.1,11.1 -6.4,15.4c-4.2,4.2 -9.4,6.4 -15.4,6.4l-21.7,0l0,-87.4l21.7,0l0,-0.1zm0,84.4c2.5,0 4.9,-0.5 7.2,-1.5c2.3,-1 4.3,-2.3 6,-4c1.7,-1.7 3,-3.6 4,-5.9c1,-2.3 1.5,-4.7 1.5,-7.3l0,-43.9c0,-5.2 -1.8,-9.6 -5.5,-13.2c-3.7,-3.7 -8.1,-5.5 -13.2,-5.5l-18.7,0l0,81.4l18.7,0l0,-0.1z"/>
    <path d="m74.05001,468.90001c2.8,-2.8 6.2,-4.2 10.2,-4.2c4,0 7.4,1.4 10.2,4.2c2.8,2.8 4.2,6.2 4.2,10.2l0,16.4l-26,0l0,11.9c0,3.2 1.1,5.9 3.4,8.1c2.2,2.2 4.9,3.4 8.1,3.4c3.2,0 5.9,-1.1 8.1,-3.4c2.2,-2.2 3.4,-5 3.4,-8.1l0,-1.4l3,0l0,1.4c0,4 -1.4,7.4 -4.2,10.2c-2.8,2.8 -6.2,4.2 -10.2,4.2c-4,0 -7.4,-1.4 -10.2,-4.2c-2.8,-2.8 -4.2,-6.2 -4.2,-10.2l0,-28.3c-0.1,-4 1.3,-7.4 4.2,-10.2zm18.3,2.1c-2.2,-2.2 -5,-3.4 -8.1,-3.4c-3.2,0 -5.9,1.1 -8.1,3.4c-2.2,2.2 -3.4,5 -3.4,8.1l0,13.4l23,0l0,-13.4c0,-3.2 -1.2,-5.9 -3.4,-8.1z"/>
    <path d="m115.65001,468.90001c2.8,-2.8 6.2,-4.2 10.2,-4.2c4,0 7.4,1.4 10.2,4.2c2.8,2.8 4.2,6.2 4.2,10.2l0,16.4l-26,0l0,11.9c0,3.2 1.1,5.9 3.4,8.1c2.2,2.2 4.9,3.4 8.1,3.4c3.2,0 5.9,-1.1 8.1,-3.4c2.2,-2.2 3.4,-5 3.4,-8.1l0,-1.4l3,0l0,1.4c0,4 -1.4,7.4 -4.2,10.2c-2.8,2.8 -6.2,4.2 -10.2,4.2c-4,0 -7.4,-1.4 -10.2,-4.2c-2.8,-2.8 -4.2,-6.2 -4.2,-10.2l0,-28.3c0,-4 1.4,-7.4 4.2,-10.2zm18.4,2.1c-2.2,-2.2 -5,-3.4 -8.1,-3.4c-3.2,0 -5.9,1.1 -8.1,3.4c-2.2,2.2 -3.4,5 -3.4,8.1l0,13.4l23,0l0,-13.4c0,-3.2 -1.2,-5.9 -3.4,-8.1z"/>
    <path d="m167.45001,464.60001c4,0 7.4,1.4 10.2,4.2c2.8,2.8 4.2,6.2 4.2,10.2l0,28.2c0,4 -1.4,7.4 -4.2,10.2c-2.8,2.8 -6.2,4.2 -10.2,4.2c-3.2,0 -6,-1 -8.6,-2.9c-1,-0.8 -1.9,-1.7 -2.7,-2.7l0,35.7l-3,0l0,-43.2c0,-1.1 0,-6.2 0,-15.5s0,-14.4 0,-15.4l0,-13.2l3,0l0,5.6c0.8,-1 1.7,-1.9 2.7,-2.6c2.6,-1.8 5.5,-2.8 8.6,-2.8zm0,54.2c3.2,0 5.9,-1.1 8.1,-3.4s3.4,-5 3.4,-8.1l0,-28.2c0,-3.2 -1.1,-5.9 -3.4,-8.1s-5,-3.4 -8.1,-3.4c-2.9,0 -5.5,1 -7.6,2.9c-2.2,2 -3.4,4.4 -3.7,7.4l0,30.6c0.3,2.9 1.6,5.3 3.7,7.3c2.2,2 4.7,3 7.6,3z"/>
    <path fill="#0CBFAE" d="m262.85001,433.50001l2.5,0l0,87.4l-3,0l0,-79.3l-17.3,36.3l-0.4,0.6l-1.9,0l-0.4,-0.6l-17.5,-36.3l0,79.3l-3,0l0,-87.4l2.4,0l0.4,0.7l19,39.6l19,-39.6l0.2,-0.7z" class="st0"/>
    <path fill="#0CBFAE" d="m282.35001,468.90001c2.8,-2.8 6.2,-4.2 10.2,-4.2c4,0 7.4,1.4 10.2,4.2c2.8,2.8 4.2,6.2 4.2,10.2l0,16.4l-26,0l0,11.9c0,3.2 1.1,5.9 3.4,8.1s5,3.4 8.1,3.4c3.2,0 5.9,-1.1 8.1,-3.4s3.4,-5 3.4,-8.1l0,-1.4l3,0l0,1.4c0,4 -1.4,7.4 -4.2,10.2c-2.8,2.8 -6.2,4.2 -10.2,4.2c-4,0 -7.4,-1.4 -10.2,-4.2c-2.8,-2.8 -4.2,-6.2 -4.2,-10.2l0,-28.3c-0.1,-4 1.3,-7.4 4.2,-10.2zm18.3,2.1c-2.2,-2.2 -5,-3.4 -8.1,-3.4c-3.2,0 -5.9,1.1 -8.1,3.4s-3.4,5 -3.4,8.1l0,13.4l23,0l0,-13.4c0,-3.2 -1.1,-5.9 -3.4,-8.1z" class="st0"/>
    <path fill="#0CBFAE" d="m348.75001,507.30001c0,0.1 0,0.2 0,0.4c0,0.4 0,0.7 0,1l0,13.1l-3,0l0,-5.6c-0.8,1 -1.7,1.9 -2.7,2.7c-2.6,1.9 -5.5,2.9 -8.7,2.9c-4,0 -7.4,-1.4 -10.2,-4.2c-2.8,-2.8 -4.2,-6.2 -4.2,-10.2l0,-28.3c0,-4 1.4,-7.4 4.2,-10.2c2.8,-2.8 6.2,-4.2 10.2,-4.2c3.2,0 6.2,1 8.7,3c1,0.7 1.9,1.6 2.7,2.6l0,-35.6l3,0l0,43.2c0,0.2 0,0.5 0,0.9c0,0.2 0,0.3 0,0.4l0,28.1zm-14.5,11.5c2.9,0 5.5,-1 7.7,-3c2.2,-2 3.5,-4.4 3.8,-7.2l0,-30.6c-0.3,-2.9 -1.6,-5.4 -3.8,-7.4c-2.2,-2 -4.8,-3 -7.7,-3c-3.2,0 -5.9,1.1 -8.1,3.4c-2.2,2.2 -3.4,5 -3.4,8.1l0,28.2c0,3.2 1.1,5.9 3.4,8.1c2.2,2.3 4.9,3.4 8.1,3.4z" class="st0"/>
    <path fill="#0CBFAE" d="m364.05001,438.70001c-0.3,0.3 -0.6,0.4 -1.1,0.4c-0.4,0 -0.8,-0.1 -1.1,-0.4c-0.3,-0.3 -0.4,-0.6 -0.4,-1.1c0,-0.4 0.1,-0.8 0.4,-1.1c0.3,-0.3 0.6,-0.4 1.1,-0.4c0.2,0 0.5,0.1 0.8,0.2c0.2,0.1 0.4,0.3 0.6,0.5c0.1,0.2 0.2,0.5 0.2,0.8c-0.1,0.5 -0.2,0.8 -0.5,1.1zm-2.6,25.9l3,0l0,57.2l-3,0l0,-57.2z" class="st0"/>
    <path fill="#0CBFAE" d="m381.35001,468.90001c2.8,-2.8 6.2,-4.2 10.2,-4.2s7.4,1.4 10.2,4.2c2.8,2.8 4.2,6.2 4.2,10.2l0,42.7l-3,0l0,-5.7c-0.8,1.1 -1.7,2 -2.7,2.7c-2.6,2 -5.5,3 -8.7,3c-4,0 -7.4,-1.4 -10.2,-4.2c-2.8,-2.8 -4.2,-6.2 -4.2,-10.2l0,-7.6c0,-4 1.4,-7.4 4.2,-10.2c2.8,-2.8 6.2,-4.2 10.2,-4.2c3.2,0 6.2,1 8.7,3c1,0.8 1.9,1.7 2.7,2.7l0,-12c0,-3.2 -1.1,-5.9 -3.4,-8.1c-2.2,-2.2 -5,-3.4 -8.1,-3.4c-3.2,0 -5.9,1.1 -8.1,3.4c-2.2,2.2 -3.4,5 -3.4,8.1l0,1.6l-3,0l0,-1.6c0.1,-4 1.5,-7.4 4.4,-10.2zm2.1,46.5c2.2,2.2 5,3.4 8.1,3.4c3.2,0 5.9,-1.1 8.1,-3.4c2.2,-2.2 3.4,-5 3.4,-8.1l0,-7.6c0,-3.2 -1.1,-5.9 -3.4,-8.1c-2.2,-2.2 -5,-3.4 -8.1,-3.4c-3.2,0 -5.9,1.1 -8.1,3.4c-2.2,2.2 -3.4,5 -3.4,8.1l0,7.6c0,3.2 1.1,5.9 3.4,8.1z" class="st0"/>
    <path fill="#0CBFAE" d="m452.45001,439.90001c4.2,-4.2 9.4,-6.4 15.4,-6.4c6,0 11.1,2.1 15.4,6.4s6.4,9.4 6.4,15.4l0,1.6l-3,0l0,-1.6c0,-5.2 -1.8,-9.6 -5.5,-13.2c-3.7,-3.7 -8.1,-5.5 -13.2,-5.5c-5.2,0 -9.6,1.8 -13.2,5.5c-3.7,3.7 -5.5,8.1 -5.5,13.2l0,43.9c0,5.2 1.8,9.6 5.5,13.2c3.7,3.7 8.1,5.5 13.2,5.5c5.2,0 9.6,-1.8 13.2,-5.5c3.7,-3.7 5.5,-8.1 5.5,-13.2l0,-1.5l3,0l0,1.5c0,6 -2.1,11.1 -6.4,15.4c-4.2,4.2 -9.4,6.4 -15.4,6.4c-6,0 -11.1,-2.1 -15.4,-6.4c-4.2,-4.2 -6.4,-9.4 -6.4,-15.4l0,-43.9c0,-6 2.2,-11.2 6.4,-15.4zm-4.4,9.7c-0.1,0.3 -0.2,0.7 -0.2,1c0.1,-0.3 0.2,-0.6 0.2,-1zm-0.2,54.2c0.1,0.3 0.2,0.7 0.2,1c0,-0.3 -0.1,-0.7 -0.2,-1zm2,5.1c1.7,3.2 4.2,5.8 7.4,7.8c3.2,2 6.7,2.9 10.5,2.9c-3.8,0 -7.3,-1 -10.5,-2.9c-3.2,-1.9 -5.7,-4.5 -7.4,-7.8c-0.2,-0.2 -0.3,-0.5 -0.5,-0.8c-0.2,-0.3 -0.3,-0.6 -0.4,-0.9c0.1,0.3 0.2,0.6 0.4,0.9c0.1,0.3 0.3,0.6 0.5,0.8zm35.9,-1c-1.7,3.3 -4.1,6 -7.3,8.1c-3.2,2.1 -6.8,3.1 -10.7,3.1c3.9,0 7.5,-1 10.7,-3.1c3.2,-2 5.7,-4.7 7.3,-8.1zm1.8,-55.6c0,0.3 0.1,0.7 0.1,1c0,-0.4 0,-0.7 -0.1,-1c0,-0.3 -0.1,-0.7 -0.2,-1c-0.1,-0.5 -0.2,-1 -0.4,-1.5c-0.1,-0.2 -0.2,-0.5 -0.2,-0.9c0.1,0.3 0.2,0.6 0.2,0.9c0.2,0.5 0.3,1 0.4,1.5c0.1,0.3 0.2,0.6 0.2,1z" class="st0"/>
    <path fill="#0CBFAE" d="m516.75001,464.60001c2.6,0 5,0.7 7.2,2c2.2,1.3 4,3.1 5.3,5.3c1.3,2.2 1.9,4.6 1.9,7.2l0,28.2c0,4 -1.4,7.4 -4.2,10.2c-2.8,2.8 -6.2,4.2 -10.2,4.2s-7.4,-1.4 -10.2,-4.2c-2.8,-2.8 -4.2,-6.2 -4.2,-10.2l0,-28.2c0,-4 1.4,-7.4 4.2,-10.2c2.8,-2.9 6.2,-4.3 10.2,-4.3zm-8.1,50.8c2.2,2.2 4.9,3.4 8.1,3.4c3.2,0 5.9,-1.1 8.1,-3.4c2.2,-2.2 3.4,-5 3.4,-8.1l0,-28.2c0,-3.2 -1.1,-5.9 -3.4,-8.1c-2.2,-2.2 -5,-3.4 -8.1,-3.4c-3.2,0 -5.9,1.1 -8.1,3.4c-2.2,2.2 -3.4,5 -3.4,8.1l0,28.2c0,3.2 1.1,5.9 3.4,8.1z" class="st0"/>
    <path fill="#0CBFAE" d="m541.65001,517.00001c0,-2.8 1.9,-4.8 4.5,-4.8s4.5,2 4.5,4.8c0,2.7 -1.7,4.8 -4.5,4.8c-2.7,-0.1 -4.5,-2.1 -4.5,-4.8z" class="st0"/>
   </g>
   <g>
    <g>
     <path fill="url(#svg_5)" d="m264.85001,212.20001l0,102.5l-45.8,45.8l45.8,45.8l0,-38.8c85.8,0 155.4,-69.6 155.4,-155.4l-155.4,0l0,0.1z" class="st7"/>
    </g>
   </g>
   <g>
    <g>
     <path fill="url(#svg_4)" d="m420.25001,212.20001c0,-85.8 -69.6,-155.4 -155.4,-155.4l0,155.4l102.5,0l45.8,45.8l45.8,-45.8l-38.7,0z" class="st8"/>
    </g>
   </g>
   <g>
    <g>
     <path fill="url(#svg_3)" d="m264.85001,18.10001l0,38.8c-85.8,0 -155.4,69.6 -155.4,155.4l155.4,0l0,-102.6l45.8,-45.8l-45.8,-45.8z" class="st9"/>
    </g>
   </g>
   <g>
    <g>
     <path fill="url(#svg_2)" d="m162.35001,212.20001l-45.8,-45.8l-45.8,45.8l38.8,0c0,85.8 69.6,155.4 155.4,155.4l0,-155.4l-102.6,0z" class="st10"/>
    </g>
   </g>
   <polygon fill="#0CBFAE" points="264.8500061035156,314.70001220703125 219.05001831054688,360.6000061035156 264.8500061035156,406.3999938964844 " class="st0"/>
   <circle fill="#FFFFFF" r="56.8" cy="212.20001" cx="264.85001" class="st1"/>
   <line stroke-miterlimit="10" stroke-width="1.1271" stroke="#0CBFAE" fill="none" y2="367.60001" x2="265.15001" y1="315.20001" x1="265.15001" class="st11"/>
  </g>
 </g>
</svg>