<svg width="993" height="235" xmlns="http://www.w3.org/2000/svg">
 <defs>
  <linearGradient gradientTransform="matrix(0,-1,1,0,2635.43310546875,2035.41015625)" y2="-2498.0271" x2="1872.9465" y1="-2399.0881" x1="1918.2651" gradientUnits="userSpaceOnUse" id="svg_10">
   <stop stop-color="#000000" offset="0"/>
   <stop stop-color="#0CBFAE" offset="1"/>
  </linearGradient>
  <linearGradient gradientTransform="matrix(-1,0,0,-1,2162.75439453125,-2086.8946533203125)" y2="-2182.5837" x2="2004.1957" y1="-2083.645" x1="2049.5144" gradientUnits="userSpaceOnUse" id="svg_9">
   <stop stop-color="#000000" offset="0"/>
   <stop stop-color="#0CBFAE" offset="1"/>
  </linearGradient>
  <linearGradient gradientTransform="matrix(0,1,-1,0,-1787.617431640625,-1932.8187255859375)" y2="-1879.4017" x2="2007.3552" y1="-1780.4629" x1="2052.6738" gradientUnits="userSpaceOnUse" id="svg_8">
   <stop stop-color="#000000" offset="0"/>
   <stop stop-color="#0CBFAE" offset="1"/>
  </linearGradient>
  <linearGradient gradientTransform="matrix(1,0,0,1,-2007.800048828125,1876.5)" y2="-1735.1891" x2="2078.4316" y1="-1636.2502" x1="2123.7502" gradientUnits="userSpaceOnUse" id="svg_7">
   <stop stop-color="#000000" offset="0"/>
   <stop stop-color="#0CBFAE" offset="1"/>
  </linearGradient>
 </defs>
 <g>
  <title>Layer 1</title>
  <g>
   <g>
    <g>
     <rect fill="#0CBFAE" height="134.2" width="234.2" class="st0" y="40.5" x="281.20001"/>
    </g>
    <g>
     <path d="m316.80001,55c7.6,0 14.2,2.7 19.6,8.1c5.4,5.4 8.1,11.9 8.1,19.6l0,56c0,7.6 -2.7,14.2 -8.1,19.6c-5.4,5.4 -11.9,8.1 -19.6,8.1l-27.7,0l0,-111.4l27.7,0zm0,107.6c3.2,0 6.3,-0.6 9.2,-1.9c3,-1.3 5.5,-3 7.6,-5.1c2.1,-2.1 3.8,-4.6 5.1,-7.6c1.3,-2.9 1.9,-6 1.9,-9.3l0,-56c0,-6.6 -2.3,-12.2 -7,-16.9c-4.7,-4.7 -10.3,-7 -16.9,-7l-23.9,0l0,103.7l24,0l0,0.1z"/>
     <path d="m366.20001,100c3.6,-3.6 8,-5.4 13,-5.4s9.4,1.8 13,5.4c3.6,3.6 5.4,8 5.4,13l0,20.8l-33.1,0l0,15.1c0,4 1.4,7.5 4.3,10.3s6.3,4.3 10.3,4.3c4,0 7.5,-1.4 10.3,-4.3c2.9,-2.9 4.3,-6.3 4.3,-10.3l0,-1.8l3.8,0l0,1.8c0,5.1 -1.8,9.4 -5.4,13c-3.6,3.6 -8,5.4 -13,5.4s-9.4,-1.8 -13,-5.4c-3.6,-3.6 -5.4,-8 -5.4,-13l0,-36c0,-4.9 1.8,-9.3 5.5,-12.9zm23.3,2.7c-2.9,-2.9 -6.3,-4.3 -10.3,-4.3c-4,0 -7.5,1.4 -10.3,4.3s-4.3,6.3 -4.3,10.3l0,17l29.3,0l0,-17c-0.1,-3.9 -1.5,-7.4 -4.4,-10.3z"/>
     <path d="m419.30001,100c3.6,-3.6 8,-5.4 13,-5.4s9.4,1.8 13,5.4c3.6,3.6 5.4,8 5.4,13l0,20.8l-33.1,0l0,15.1c0,4 1.4,7.5 4.3,10.3s6.3,4.3 10.3,4.3c4,0 7.5,-1.4 10.3,-4.3c2.9,-2.9 4.3,-6.3 4.3,-10.3l0,-1.8l3.8,0l0,1.8c0,5.1 -1.8,9.4 -5.4,13c-3.6,3.6 -8,5.4 -13,5.4s-9.4,-1.8 -13,-5.4c-3.6,-3.6 -5.4,-8 -5.4,-13l0,-36c0.1,-4.9 1.9,-9.3 5.5,-12.9zm23.4,2.7c-2.9,-2.9 -6.3,-4.3 -10.3,-4.3c-4,0 -7.5,1.4 -10.3,4.3s-4.3,6.3 -4.3,10.3l0,17l29.3,0l0,-17c-0.1,-3.9 -1.6,-7.4 -4.4,-10.3z"/>
     <path d="m485.30001,94.6c5.1,0 9.4,1.8 13,5.4c3.6,3.6 5.4,8 5.4,13l0,36c0,5.1 -1.8,9.4 -5.4,13c-3.6,3.6 -8,5.4 -13,5.4c-4,0 -7.7,-1.2 -11,-3.7c-1.3,-1.1 -2.4,-2.2 -3.5,-3.5l0,45.5l-3.8,0l0,-55.1c0,-1.4 0,-8 0,-19.7s0,-18.3 0,-19.6l0,-16.9l3.8,0l0,7.2c1.1,-1.3 2.2,-2.4 3.5,-3.3c3.3,-2.4 7,-3.7 11,-3.7zm0,69.1c4,0 7.5,-1.4 10.3,-4.3c2.9,-2.9 4.3,-6.3 4.3,-10.3l0,-36c0,-4 -1.4,-7.5 -4.3,-10.3c-2.9,-2.9 -6.3,-4.3 -10.3,-4.3c-3.7,0 -6.9,1.2 -9.7,3.7c-2.8,2.5 -4.4,5.6 -4.8,9.5l0,39c0.4,3.7 2,6.8 4.8,9.3c2.8,2.4 6,3.7 9.7,3.7z"/>
     <path fill="#0CBFAE" d="m606.90001,55l3.2,0l0,111.4l-3.8,0l0,-101l-22.1,46.3l-0.5,0.8l-2.4,0l-0.5,-0.8l-22.3,-46.3l0,101l-3.8,0l0,-111.4l3,0l0.5,1l24.2,50.4l24.2,-50.4l0.3,-1z" class="st0"/>
     <path fill="#0CBFAE" d="m631.70001,100c3.6,-3.6 8,-5.4 13,-5.4s9.4,1.8 13,5.4c3.6,3.6 5.4,8 5.4,13l0,20.8l-33.1,0l0,15.1c0,4 1.4,7.5 4.3,10.3s6.3,4.3 10.3,4.3c4,0 7.5,-1.4 10.3,-4.3c2.9,-2.9 4.3,-6.3 4.3,-10.3l0,-1.8l3.8,0l0,1.8c0,5.1 -1.8,9.4 -5.4,13c-3.6,3.6 -8,5.4 -13,5.4s-9.4,-1.8 -13,-5.4c-3.6,-3.6 -5.4,-8 -5.4,-13l0,-36c0.1,-4.9 1.9,-9.3 5.5,-12.9zm23.4,2.7c-2.9,-2.9 -6.3,-4.3 -10.3,-4.3c-4,0 -7.5,1.4 -10.3,4.3s-4.3,6.3 -4.3,10.3l0,17l29.3,0l0,-17c-0.1,-3.9 -1.5,-7.4 -4.4,-10.3z" class="st0"/>
     <path fill="#0CBFAE" d="m716.40001,149c0,0.1 0,0.3 0,0.5c0,0.5 0,1 0,1.3l0,16.7l-3.8,0l0,-7.2c-1.1,1.3 -2.2,2.4 -3.5,3.5c-3.3,2.4 -7,3.7 -11.1,3.7c-5.1,0 -9.4,-1.8 -13,-5.4c-3.6,-3.6 -5.4,-8 -5.4,-13l0,-36c0,-5.1 1.8,-9.4 5.4,-13c3.6,-3.6 8,-5.4 13,-5.4c4.1,0 7.8,1.3 11.1,3.8c1.3,1 2.4,2.1 3.5,3.3l0,-45.3l3.8,0l0,55c0,0.2 0,0.6 0,1.1c0,0.2 0,0.4 0,0.5l0,35.9zm-18.5,14.7c3.7,0 7,-1.3 9.8,-3.8c2.8,-2.5 4.4,-5.6 4.9,-9.2l0,-39c-0.4,-3.7 -2,-6.8 -4.9,-9.4c-2.8,-2.5 -6.1,-3.8 -9.8,-3.8c-4,0 -7.5,1.4 -10.3,4.3s-4.3,6.3 -4.3,10.3l0,36c0,4 1.4,7.5 4.3,10.3s6.3,4.3 10.3,4.3z" class="st0"/>
     <path fill="#0CBFAE" d="m735.80001,61.6c-0.4,0.4 -0.8,0.6 -1.4,0.6c-0.5,0 -1,-0.2 -1.4,-0.6c-0.4,-0.4 -0.6,-0.8 -0.6,-1.4c0,-0.5 0.2,-1 0.6,-1.4c0.4,-0.4 0.8,-0.6 1.4,-0.6c0.3,0 0.6,0.1 1,0.2c0.3,0.2 0.6,0.4 0.7,0.6c0.2,0.3 0.2,0.6 0.2,1c0.1,0.8 -0.1,1.2 -0.5,1.6zm-3.2,33l3.8,0l0,72.9l-3.8,0l0,-72.9z" class="st0"/>
     <path fill="#0CBFAE" d="m757.90001,100c3.6,-3.6 8,-5.4 13,-5.4s9.4,1.8 13,5.4c3.6,3.6 5.4,8 5.4,13l0,54.5l-3.8,0l0,-7.3c-1.1,1.4 -2.2,2.5 -3.5,3.5c-3.3,2.5 -7,3.8 -11.1,3.8c-5.1,0 -9.4,-1.8 -13,-5.4c-3.6,-3.6 -5.4,-8 -5.4,-13l0,-9.7c0,-5.1 1.8,-9.4 5.4,-13c3.6,-3.6 8,-5.4 13,-5.4c4.1,0 7.8,1.3 11.1,3.8c1.3,1.1 2.4,2.2 3.5,3.5l0,-15.1c0,-4 -1.4,-7.5 -4.3,-10.3c-2.9,-2.9 -6.3,-4.3 -10.3,-4.3c-4,0 -7.5,1.4 -10.3,4.3s-4.3,6.3 -4.3,10.3l0,2.1l-3.8,0l0,-2.1c0,-5.2 1.8,-9.6 5.4,-13.2zm2.7,59.4c2.9,2.9 6.3,4.3 10.3,4.3c4,0 7.5,-1.4 10.3,-4.3c2.9,-2.9 4.3,-6.3 4.3,-10.3l0,-9.7c0,-4 -1.4,-7.5 -4.3,-10.3c-2.9,-2.9 -6.3,-4.3 -10.3,-4.3c-4,0 -7.5,1.4 -10.3,4.3s-4.3,6.3 -4.3,10.3l0,9.7c0,4 1.4,7.4 4.3,10.3z" class="st0"/>
     <path fill="#0CBFAE" d="m848.60001,63.1c5.4,-5.4 11.9,-8.1 19.6,-8.1s14.2,2.7 19.6,8.1c5.4,5.4 8.1,11.9 8.1,19.6l0,2.1l-3.8,0l0,-2.1c0,-6.6 -2.3,-12.2 -7,-16.9c-4.7,-4.7 -10.3,-7 -16.9,-7c-6.6,0 -12.2,2.3 -16.9,7c-4.7,4.7 -7,10.3 -7,16.9l0,56c0,6.6 2.3,12.2 7,16.9c4.7,4.7 10.3,7 16.9,7c6.6,0 12.2,-2.3 16.9,-7c4.7,-4.7 7,-10.3 7,-16.9l0,-1.9l3.8,0l0,1.9c0,7.6 -2.7,14.2 -8.1,19.6c-5.4,5.4 -11.9,8.1 -19.6,8.1s-14.2,-2.7 -19.6,-8.1s-8.1,-11.9 -8.1,-19.6l0,-56c0,-7.6 2.7,-14.2 8.1,-19.6zm-5.6,12.4c-0.1,0.4 -0.2,0.8 -0.3,1.3c0.1,-0.4 0.2,-0.8 0.3,-1.3zm-0.3,69.1c0.1,0.4 0.2,0.9 0.3,1.3c-0.1,-0.5 -0.2,-0.9 -0.3,-1.3zm2.5,6.5c2.2,4.1 5.4,7.5 9.5,9.9c4.1,2.5 8.6,3.7 13.4,3.7c-4.9,0 -9.4,-1.2 -13.4,-3.7c-4.1,-2.4 -7.2,-5.7 -9.5,-9.9c-0.2,-0.3 -0.4,-0.7 -0.6,-1c-0.2,-0.4 -0.4,-0.8 -0.5,-1.2c0.1,0.4 0.3,0.8 0.5,1.2c0.2,0.4 0.4,0.7 0.6,1zm45.9,-1.3c-2.1,4.2 -5.2,7.7 -9.3,10.3c-4.1,2.7 -8.6,4 -13.6,4c5,0 9.5,-1.3 13.6,-4c4,-2.6 7.1,-6 9.3,-10.3zm2.3,-70.9c0.1,0.4 0.1,0.9 0.1,1.3c-0.1,-0.5 -0.1,-0.9 -0.1,-1.3c-0.1,-0.4 -0.1,-0.8 -0.2,-1.3c-0.1,-0.6 -0.3,-1.3 -0.5,-1.9c-0.1,-0.3 -0.2,-0.7 -0.3,-1.1c0.1,0.4 0.2,0.8 0.3,1.1c0.2,0.6 0.4,1.3 0.5,1.9c0,0.4 0.1,0.9 0.2,1.3z" class="st0"/>
     <path fill="#0CBFAE" d="m930.50001,94.6c3.3,0 6.4,0.8 9.2,2.5c2.9,1.7 5.1,4 6.8,6.8c1.6,2.8 2.5,5.9 2.5,9.1l0,36c0,5.1 -1.8,9.4 -5.4,13c-3.6,3.6 -8,5.4 -13,5.4s-9.4,-1.8 -13,-5.4c-3.6,-3.6 -5.4,-8 -5.4,-13l0,-36c0,-5.1 1.8,-9.4 5.4,-13c3.5,-3.6 7.8,-5.4 12.9,-5.4zm-10.3,64.8c2.9,2.9 6.3,4.3 10.3,4.3c4,0 7.5,-1.4 10.3,-4.3c2.9,-2.9 4.3,-6.3 4.3,-10.3l0,-36c0,-4 -1.4,-7.5 -4.3,-10.3c-2.9,-2.9 -6.3,-4.3 -10.3,-4.3c-4,0 -7.5,1.4 -10.3,4.3s-4.3,6.3 -4.3,10.3l0,36c0,4 1.4,7.4 4.3,10.3z" class="st0"/>
     <path fill="#0CBFAE" d="m962.30001,161.4c0,-3.6 2.4,-6.1 5.8,-6.1c3.4,0 5.7,2.5 5.7,6.1c0,3.5 -2.2,6.1 -5.8,6.1c-3.4,0 -5.7,-2.6 -5.7,-6.1z" class="st0"/>
    </g>
   </g>
   <g>
    <circle fill="#FFFFFF" r="115.4" cy="118.5" cx="114.60001" class="st1"/>
    <g>
     <g>
      <path fill="url(#svg_10)" d="m114.60001,118.5l0,57.4l-25.7,25.7l25.7,25.7l0,-21.7c48.1,0 87.1,-39 87.1,-87.1l-87.1,0z" class="st2"/>
     </g>
    </g>
    <g>
     <g>
      <path fill="url(#svg_9)" d="m201.70001,118.5c0,-48.1 -39,-87.1 -87.1,-87.1l0,87.1l57.4,0l25.7,25.7l25.7,-25.7l-21.7,0z" class="st3"/>
     </g>
    </g>
    <g>
     <g>
      <path fill="url(#svg_8)" d="m114.60001,9.7l0,21.7c-48.1,0 -87.1,39 -87.1,87.1l87.1,0l0,-57.4l25.7,-25.7l-25.7,-25.7z" class="st4"/>
     </g>
    </g>
    <g>
     <g>
      <path fill="url(#svg_7)" d="m57.10001,118.5l-25.7,-25.7l-25.6,25.7l21.7,0c0,48.1 39,87.1 87.1,87.1l0,-87.1l-57.5,0z" class="st5"/>
     </g>
    </g>
    <polygon fill="#0CBFAE" points="114.60000610351562,175.9000244140625 88.90000915527344,201.5999755859375 114.60000610351562,227.29998779296875 " class="st0"/>
    <circle fill="#FFFFFF" r="31.8" cy="118.5" cx="114.60001" class="st1"/>
    <line stroke-miterlimit="10" stroke-width="0.6317" stroke="#0CBFAE" fill="none" y2="205.6" x2="114.70001" y1="176.2" x1="114.70001" class="st6"/>
   </g>
  </g>
 </g>
</svg>